<svg xmlns="http://www.w3.org/2000/svg" version="1.1" xmlns:xlink="http://www.w3.org/1999/xlink" xmlns:svgjs="http://svgjs.com/svgjs" width="512" height="512" x="0" y="0" viewBox="0 0 64 64" style="enable-background:new 0 0 512 512" xml:space="preserve" class=""><g><path xmlns="http://www.w3.org/2000/svg" d="m51 22h-1a12 12 0 0 0 -24 0h-1a10 10 0 0 0 0 20h26a10 10 0 0 0 0-20z" fill="#56a9d0" data-original="#56a9d0" class=""></path><path xmlns="http://www.w3.org/2000/svg" d="m28 37h26v2h-26z" fill="#4a91b2" data-original="#4a91b2" class=""></path><path xmlns="http://www.w3.org/2000/svg" d="m39 34h-1a12 12 0 0 0 -24 0h-1a10 10 0 0 0 0 20h26a10 10 0 0 0 0-20z" fill="#66bae1" data-original="#66bae1" class=""></path><g xmlns="http://www.w3.org/2000/svg" fill="#9ecce3"><path d="m12 49h26v2h-26z" fill="#9ecce3" data-original="#9ecce3"></path><path d="m40 49h2v2h-2z" fill="#9ecce3" data-original="#9ecce3"></path><path d="m17 33h2v2h-2z" fill="#9ecce3" data-original="#9ecce3"></path><path d="m17 29h2v2h-2z" fill="#9ecce3" data-original="#9ecce3"></path></g><g xmlns="http://www.w3.org/2000/svg" fill="#4a91b2"><path d="m45 21h2v2h-2z" fill="#4a91b2" data-original="#4a91b2" class=""></path><path d="m45 17h2v2h-2z" fill="#4a91b2" data-original="#4a91b2" class=""></path></g></g></svg>